<?xml version="1.0" encoding="UTF-8"?>
<svg version="1.1" viewBox="0 0 2012 1504" width="503" height="376" xmlns="http://www.w3.org/2000/svg">
<path transform="translate(0)" d="m0 0h2012v1504h-2012z" fill="#4297D1"/>
<path transform="translate(1117,816)" d="m0 0 20 8 42 16 30 12 34 13 21 9 15 9 8 8 8 11 7 14 2 7 7 96v27l-4 11-10 13-11 7-8 3-10 1h-481l-8-2-12-6-6-5-7-10-4-9-2-10 1-23 3-65 2-20 4-13 7-12 9-10 7-7 13-8 19-8 39-15 35-14 38-15 30-12h5l2 7 8 16 11 24 8 16 9 19 3 1 16-12 9-7h2l-1 20-2 5v7l3 7v9l-3 14 1 8 2 7v10h11l4-1 2-12v-20l-1-5v-9l1-2v-19l-1-3v-15l6 2 22 13 4 2 1-6 11-20 8-16 15-29z" fill="#4A5455"/>
<path transform="translate(1131,280)" d="m0 0h26l17 4 13 6 11 7 12 11 9 12 6 13 5 17 1 5v19l-4 17-5 12-8 13-7 9h-2l-2 4h-2v2h-2v3l6 1 24 12 22 13 15 10 14 10 13 10 4 4-1 3-6-2-12-10-14-10-15-10-22-13-15-8-14-7-4-1-17 9-17 5-5 1h-18l-16-4-14-5-12-7-13-12-10-13-4-7v-3l-2 1h-50l-17 1-33 4-34 7-29 8-25 9-27 12-22 12-20 12-15 10-3 1-1 21-6 21-5 9-8 11-5 5-10 9-15 8-16 5-8 1h-17l-2 5-13 20-12 20-3 1-1-4 8-14 18-27v-2l-22-8-11-7-9-8-10-13-7-14-5 5-9 13-14 22-9 16-8 15-13 28-8 20-11 33-9 36-5 28-3 24-5 60h-4l1-25 2-32 4-33 7-34 8-30 10-29 12-29 15-31 11-19 11-17 7-10 8-12 4-5-2-14v-21l4-16 7-14 8-10 5-6 16-12 10-5 12-4 5-1h22l10 2h5l13-10 17-11 20-12 22-12 25-12 20-8 36-12 26-7 31-6 27-4 36-3h42l18 1 5 3v1h-62l-38 3-32 5-29 6-25 7-33 11-26 11-25 12-18 10-20 12-21 14-4 4 17 10 11 9 8 10 7 12 4 11 2 9 20-13 13-8 18-10 16-8 16-7 21-8 15-5 31-8 21-4 23-3 34-3h31l17 1-4-16-1-10h-9l-3-3 4-1 8 1v-14l3-15 8-16 5-9 7-8 8-7 8-6 17-9z" fill="#FDD84C"/>
<path transform="translate(999,608)" d="m0 0 4 1 18 18 14 10 14 8 17 7 14 4 16 3 29 1v11l-7 59-1 13 7 1-3 4-8 19v13l3 24v16l-8 16-16 31-10 18-5 11-1 3-4-1-22-13-6-3 1 15 1 3v19l-1 2v9l1 5v20l-2 12-5 2h-7l-4-1-1-12-3-9 1-9 2-9v-9l-3-7v-7l2-5 2-20-24 18-5 2-3-4-11-23-12-25-11-24-2-3-1-6 2-22 2-6-12-12-10-13-9-15v-2l-4-2h16l6-1 10 1h3l-2-21-5-40v-9l3-9 5-14 8-16 7-10 9-10z" fill="#FDE0B1"/>
<path transform="translate(1283,1102)" d="m0 0 5 2 9 8 7 2v4l11 9 6 6-1 3-5 5-6 8-12 11-7 8-6 5h-6l-10 7h-4l1-4 13-8h3v-31l-5 2-27 18-13 8-19 11-24 11-26 10-25 8-23 6h-4l-1 45-6 7 1 7 6 5 5 4-2 6-3 7 25-5 34-9 29-10 24-10 20-9 17-9 11-6 15-9 24-16 11-8 14-11 7-5 1-2h-55l-2-3 3-5 11-13 4-5h2l2-4 9-10 3-4 5 1 7 5v2l6 1 10-9 5 1 14 15 1 3 5 2 5 8 10 10v3l-7 2-30 1-11 9-17 13-15 11-20 13-20 12-27 14-22 10-25 10-32 10-27 7-16 3h-10l1 3v24l-2 2-22 1h-23v-3l3-7-7 4-4 6h-82l-2-3-1-20-1-1-21-3-25-5-30-7-27-8-24-9-30-13-22-11-24-14-18-11-4-3v-3l5-1 6 4 21 13 18 10 21 11 20 9 29 11 29 9 28 7 32 6 17 2v-78l-42-9-31-9-31-11-20-9-3-3v-2l8 1 18 8 27 10 28 8 41 9 6 1-1-49 3-4h31l4 4 1 14h66l-1-15 5-3h30l1 1 1 47 42-12 17-6 25-10 16-8 20-11 21-13 17-12 8-5v-19l1-8z" fill="#F5F8F8"/>
<path transform="translate(1025,572)" d="m0 0h29l15 3 18 6 15 8 12 9 12 11 11 14 7 11 8 18v6l6 2 8 6 4 5 3 6 1 5v10l-3 26-3 12-5 8-6 5-6 3h-17l-17-2-1-1 1-13 7-59 1-11h-29l-24-5-16-6-16-8-15-10-12-11-11-11-5 1-11 8-8 9-9 15-7 16-3 12-2 4v9l6 48v13l-9 1-6-1-9 1-14-1-9-7-4-6-4-20-2-17v-17l6-8 8-8 5-2 3-11 6-13 8-13 8-10 8-9 14-11 14-8 11-5 12-4z" fill="#FDD94B"/>
<path transform="translate(1437,785)" d="m0 0 5 1v19l-1 31-2 32 9-2h22l15 5 10 5 9 7 9 9v2l3 1 7 17 2 12v16l-2 11-7 16-9 11-7 7-9 7-4 12-15 31-12 22-12 20-8 12-13 18-13 16-13 15-1 1-1 36-4-2-11-12-6-1-1-7-8-8-7-8-2-2v-3l11-9 15-13 10-8 3 1v29l5-5 11-13 13-17 12-17 8-13 10-17 8-14 11-23 7-15 1-4-18 4h-20l-13-4-6-1-1 5-4 8-4 2 1-7 5-9-2-4-9-7-7-6-14 29-13 22-14 21-12 16-13 15-12 14-1 2h32l2-4 2-2 4 1-2 6h22l2 1-2 4-9 7-15 14-11 9-10 10-5-1-13-10-5-5-9-8-6-2-3-5-12-11 2-3 28-1 12-12 11-14 11-12 16-24 9-14 13-23 11-22h2l-8-17-4-15v-21l5-15 6-11 11-12 11-8 8-5 3-52z" fill="#F47272"/>
<path transform="translate(619,785)" d="m0 0h4v45l10 1 2 1 1 10v27h29l4 2 1 4v61l-1 2-12 2-2 1-1 10-2 3h-2l5 13 18 37 12 20 8 12 12 17 10 13 12 14 13 14 7 7v3l-4-1-8-7-2-4h-2v-2h-2l-7-8-9-10-13-17-11-15-13-21-14-25-11-24-6-16-3-7-3-5-2-1-15-1h-14l1 5v7h-3l-2-3-1-8-17-1h-16l-11-1-2-6v-12l-32 1-13 13h-4l-1-6 1-9h-13l-2-1-1-24v-62l1-2 18-1h108z" fill="#F8FAFB"/>
<path transform="translate(1133,291)" d="m0 0h25l14 4 12 6 11 8 6 5 8 11 7 16 4 16v18l-5 18-8 15-9 10-8 7-10 6-11 5-13 3h-21l-16-4-14-7-13-11-8-9-5-8-6-16-2-10v-20l3-12 5-12 7-11 9-10 13-9 11-5z" fill="#F6F9FA"/>
<path transform="translate(0)" d="m0 0h2012v1504h-4l-1-1500-8 1h-1926l-73-1z" fill="#F8FBFD"/>
<path transform="translate(1110,772)" d="m0 0h1l3 16 2 16v16l-8 16-16 31-10 18-5 11-1 3-4-1-22-13-6-3 1 15 1 3v19l-1 2v9l1 5v20l-2 12-5 2h-7l-4-1-1-12-3-9 1-9 2-9v-9l-3-7v-7l2-5 2-20-24 18-5 2-3-4-11-23-12-25-11-24-2-3-1-6 2-22h2l2-4 12 7 17 9 21 7 2-9 7-8 5-2h7l6 3 5 6 2 4v8l10-2 15-6 14-10 12-12 8-11z" fill="#ECAC6C"/>
<path transform="translate(1450,599)" d="m0 0 5 1 9 6v2l26 2 2 1 1 16 5 2 15 12 1 2 1 47v23l-1 1-21 1-104-1-1-3-1-68 5-5 12-9 6-4 1-12 2-3 16-1 8-2 11-7z" fill="#FDD84A"/>
<path transform="translate(583,870)" d="m0 0h56l28 1 1 1 1 8 1 28v28l-1 2-12 2-2 1-1 10-2 3h-2l5 13 18 37 12 20 8 12 12 17 10 13 12 14 13 14 7 7v3l-4-1-8-7-2-4h-2v-2h-2l-7-8-9-10-13-17-11-15-13-21-14-25-11-24-6-16-3-7-3-5-2-1-15-1h-14l1 5v7h-3l-2-3-1-8-17-1h-16l-11-1-2-6v-58l1-4z" fill="#FDD84B"/>
<path transform="translate(1032,582)" d="m0 0h15l19 3 15 5 17 9 12 9 12 12 10 14v2h2l5 11 2 9-1 1h-8l-7 3h-29l-24-5-16-6-16-8-15-10-12-11-11-11-5 1-11 8-8 9-9 15-7 16-3 12-3 2-2-14-17-1 1-6 11-21 9-11 14-14 13-9 14-7 13-4z" fill="#3C3B3B"/>
<path transform="translate(1011,535)" d="m0 0h11l16 1 6 2 25 5 14 3 8 3 7 1 1-1 10 1 12 5 4 2 5 5 6 11 4 13 1 9-1 22-3 6-5-5-8-10-12-11-15-10-15-7-21-6-7-1h-29l-16 3-17 6-17 9-12 9-8 7-9 11-7 10-6 9h-1v-34l4-17 6-14 8-12 7-7 13-9 13-5 12-3z" fill="#3C3C3C"/>
<path transform="translate(1131,280)" d="m0 0h26l17 4 13 6 11 7 12 11 9 12 6 13 5 17 1 5v19l-4 17-5 12-8 13-7 9h-2l-2 4h-2v2h-2v3l6 1 24 12 22 13 15 10 14 10 13 10 4 4-1 3-6-2-12-10-14-10-15-10-22-13-15-8-14-7-4-1-17 9-17 5-5 1h-18l-16-4-14-5-12-7-13-12-10-13-4-7v-3l-2 1h-50l-17 1-33 4-34 7-29 8-25 9-27 12-22 12-20 12-15 10-3 1-1 5h-1l-1-11 1 2 20-13 13-8 18-10 16-8 16-7 21-8 15-5 31-8 21-4 23-3 34-3h31l17 1-4-16-1-10h-9l-3-3 4-1 8 1v-14l3-15 8-16 5-9 7-8 8-7 8-6 17-9zm2 11-17 5-13 7-11 9-10 13-7 14-3 9-1 6v20l4 16 5 12 10 13 11 10 11 7 14 5 9 2h21l16-4 15-8 9-7 9-9 9-16 5-16 1-4v-18l-5-19-8-16-7-9-10-8-13-8-14-5-5-1z" fill="#FCD553"/>
<path transform="translate(1114,816)" d="m0 0h2l-1 7-10 19-13 25-10 18-5 11-1 3-4-1-22-13-6-3 1 15 1 3v19l-1 2v9l1 5v20l-2 12-5 2h-7l-4-1-1-12-3-9 1-9 2-9v-9l-3-7v-7l2-5 2-20-24 18-5 2-3-4-11-23-12-25-11-24-2-3v-5h2l5 6 14 11 19 14 28 21 5 4h5l5-4 16-11 15-11 17-12 15-11z" fill="#F8F9F9"/>
<path transform="translate(717,445)" d="m0 0 6 1 5 6 3 9v7l-2 7 24 1 4 4-1 14-5 25-3 5-2 1-9 1h-41l-2 2-8 1h-15l-6-1-1-2v-41l2-2 30-1 5-3 8-15 3-16z" fill="#FAF1E0"/>
<path transform="translate(1450,599)" d="m0 0 5 1 9 6v2l26 2 2 1 1 16-1 26-3 3-25 14-12 6-14-8-16-8-11-6v-27l-2-1 1-1 1-12 2-3 16-1 8-2 11-7z" fill="#F8F8F5"/>
<path transform="translate(936,657)" d="m0 0h18l1 1 1 14 2 1-1 1v9l6 48v13l-9 1-6-1-9 1-14-1-9-7-4-6-4-20-2-17v-17l6-8 8-8 6-2 10-1z" fill="#FDD94E"/>
<path transform="translate(1324,1139)" d="m0 0 5 1 7 5v2l6 1 10-9 5 1 14 15 1 3 5 2 5 8 10 10v3l-7 2-30 1-11 9-17 13-15 11-20 13-20 12-27 14-22 10-25 10-32 10-27 7-16 3h-10v-3l9-2 38-9 29-9 27-10 31-14 17-9 11-6 15-9 24-16 11-8 14-11 7-5 1-2h-55l-2-3 3-5 11-13 4-5h2l2-4 9-10z" fill="#F8FBFD"/>
<path transform="translate(977,1159)" d="m0 0h31l4 4v4l-12 1h-17l1 148 75 1 3 3-3 6h-82l-2-3-1-20-1-1-21-3-25-5-30-7-27-8-24-9-30-13-22-11-24-14-18-11-4-3v-3l5-1 6 4 21 13 18 10 21 11 20 9 29 11 29 9 28 7 32 6 17 2v-78l-42-9-31-9-31-11-20-9-3-3v-2l8 1 18 8 27 10 28 8 41 9 6 1-1-49z" fill="#ECB176"/>
<path transform="translate(509,1096)" d="m0 0 9 1 8 6 4 5 4 15 4 5v3l5-3 13-13 7-9 7-7 6-2 5 3 2 2v6l-7 9-11 7-6 6h-2v2h-2l-2 4-4 5 3 2 8 4 15 2 7 6v4l-10 1-6 3-1 5 8 4h10l-1 4-4 2-2 4-5 2h-11l-7-5-4-6-2-6 1-10-7 1-5 4-7 4-10 10-11 8-6 1-6-5-1-7 8-10 13-14 6-8 5-4 1-3-2 1h-17l-9-5-4-5v-3l14-3 2-1-1-5-10-3-5-1 2-5 7-6z" fill="#236293"/>
<path transform="translate(825,205)" d="m0 0h9l8 4 5 6 4 8 2 9 5 8 6-4 11-11 8-11 5-5 4-3h6l5 5v7l-5 6-13 9-16 16v3l7 3 14 2 8 4 5 6v4l-11 1-5 2-1 6 6 3 5 1-1 2-5 1-6-3-3-3v-6l5-5 5-2h6l-1-3-6-4h-9l-9 5-5 7 1 7 4 8 8 5h8l6-3 5-6h3l-1 4-5 5-5 3h-13l-8-6-4-5-3-13v-2h-4l-3 3-12 6-9 9-10 8-7 1-5-3-2-4 1-8 11-12 10-11 5-7 3-3-1-4-15-1-9-3-4-5v-4l10-1 5-3 2-4-3-3-3-1-11-1 1-5 4-5z" fill="#236394"/>
<path transform="translate(1301,748)" d="m0 0h9l8 5 5 6 3 10v6l5 3 1 7 11-9 9-10 9-12 2-2h3v-2l6-1 5 3 1 7-6 8-11 8-8 7-11 11-1 3 6-1 3 2-1 3-6 3-2 6-3 2h-5v2l-1 3-5 1-9 7-7 7-11 9h-6l-5-5-1-2v-6l2-3h2l1-4 7-7 8-10 4-8 5-6 1-2h-19l-7-4-4-6v-3l13-2 4-2-1-5-6-3h-9l1-6 8-7z" fill="#236394"/>
<path transform="translate(1025,572)" d="m0 0h29l15 3 18 6 15 8 12 9 12 11 11 14 7 11 8 18v6h2l-1 2-18-2v-1l5-1-3-11-3-6v-3h-2l-7-11-12-13-9-8-13-8-15-7-15-4-14-2h-15l-20 3-15 5-14 7-13 10-14 14-7 10-10 19-2 6 2 2-13 1-4 1 1-2h2l3-11 6-13 8-13 8-10 8-9 14-11 14-8 11-5 12-4z" fill="#F8FAFC"/>
<path transform="translate(1405,970)" d="m0 0 3 3-9 19-11 21-15 24-10 14-9 12-13 15-12 14-1 2h32l2-4 2-2 4 1-2 6h22l2 1-2 4-9 7-15 14-11 9-10 10-5-1-13-10-5-5-9-8-6-2-3-5-12-11 2-3 28-1 12-12 11-14 11-12 16-24 9-14 13-23 11-22h2z" fill="#F8FAFC"/>
<path transform="translate(1407,627)" d="m0 0h4l1 27 14 7 19 10 7 4v2l-9 5-19 11-14 8-8 4-10 1-1-1-1 8-2-2-1-68 5-5 12-9z" fill="#ECAE70"/>
<path transform="translate(1283,1102)" d="m0 0 5 2 9 8 7 2v4l11 9 6 6-1 3-5 5-6 8-12 11-7 8-6 5h-6l-10 7h-4l1-4 13-8h3v-31l-5 2-27 18-13 8-19 11-24 11-26 10-25 8-23 6h-4l-1 42h-1l-1-94 2 1 1 47 42-12 17-6 25-10 16-8 20-11 21-13 17-12 8-5v-19l1-8z" fill="#F8FAFA"/>
<path transform="translate(1492,627)" d="m0 0 5 1 8 7 8 6 1 2 1 47v23l-1 1-21 1-101-1v-1h101v-2l-3-1 4-2-2-3-7-2v-2l3-1-8-2-2-1 1-6-1-3 6-1 2-5 1-4-4-1 2-1v-2h-4v-2h2v-4h-4v2h-3v2h-2l-1-5 2-4 14-8h2z" fill="#FACB53"/>
<path transform="translate(717,450)" d="m0 0 4 2 3 4 2 6v7l-3 11 28 1v11l-5 25-2 3-3 1h-14l-27-1-4-1v-30l4-3h2l2-5 6-9 3-5z" fill="#FDD84A"/>
<path transform="translate(1488,991)" d="m0 0 3 1-4 12-15 31-12 22-12 20-8 12-13 18-13 16-13 15-1 1-1 36-4-2-11-12-6-1-1-7-8-8-7-8-2-2v-3l11-9 15-13 10-8 3 1v29l5-5 11-13 13-17 12-17 8-13 10-17 8-14 11-23 7-15 1-4-3-1z" fill="#F8FAFC"/>
<path transform="translate(1435,897)" d="m0 0 10 1 7 6 4 13v5l7-2 5-2 1-3 5-5 4-6 4-5 7-2 5 3 1 5-4 6-7 6-4 1v2l-8 7-2 3 1 6h10l9 3 5 6-2 4-8 1-4 3h-3v-5l5-3 6 1-2-5h-8l-7 1-3 4v9l4 6 5 2h7l3-2-9-3-2-1v-3l8 1 10 1-1 5-7 6-9 1-7-3-4-5-2-5-2-12-5 8-7 2 1-5h2v-5l-4-2-3-4h-2l-5 7h-2l-2 4-6 7-1 8 7-1 4-2 4-4 4-2-2 4-8 8-5 2-6-1v-2h-2l-1-2v-6l9-10 6-6 3-7 6-7-7 1-10-1-5-4-2-3 1-4 12-2v-2l-3-3-5-1h-4l-1-2 6-7z" fill="#FDE1B2"/>
<path transform="translate(1541,1100)" d="m0 0h7l11 4 6 5 5 11 1 7-8 17-2 2-15 5-8-2-8-5v14l-6 8-4 3h-10l-8-7-2-4 1-9 4-6 6-3h6l2 2-7 2-5 3h-2l-1 4v7l4 5 4 2h6l6-4 3-6v-8l-3-4-4-2 4-2-2-8-4-2-1-4 5-7 2-9 6-5 9-3z" fill="#4297D2"/>
<path transform="translate(1105,1265)" d="m0 0 1 3h2l5 6 6 4 1 3-4 8-1 4h-2l1 6v24l-2 2-22 1h-23v-3l3-6 7-1 6 1-2-4-5-5-7-6 4-6 28-28z" fill="#FAC94F"/>
<path transform="translate(510,549)" d="m0 0 5 1 5 5 10 2 3 3-1 8 6 4 1 2v6l-4 4-2 1v5l1 2-4 6-4 1-3-1-6 3h-3v2h-5l-9-7-2 3-3-1-3-5-3-9-4-6 1-4 4-4 2-10 4-3 10-4z" fill="#4297D2"/>
<path transform="translate(1489,369)" d="m0 0 10 2 9 6 7 9 2 6v6l-4 7-3 8-2 2-9 2-6 2-2 4-3-1-5-5v-2l-11-1-3-4h2l-2-6-1-4-3-1v-6l8-15 5-4 8-4z" fill="#4297D2"/>
<path transform="translate(1008,312)" d="m0 0h42l18 1 5 3v1h-62l-38 3-32 5-29 6-25 7-33 11-26 11-25 12-18 10-20 12-21 14-6 5-4-2 5-5 12-9 22-14 21-12 23-12 18-8 17-7 36-12 26-7 31-6 27-4z" fill="#F8FAFC"/>
<path transform="translate(633,510)" d="m0 0 3 1 1 5-4 2-7 10-10 15-15 25-10 19-13 28-8 20-11 33-9 36-5 28-3 24-5 60h-4l1-25 2-32 4-33 7-34 8-30 10-29 12-29 15-31 11-19 11-17 7-10 8-12z" fill="#F8FAFC"/>
<path transform="translate(1033,896)" d="m0 0h7l5 2 1 2v19l-1 2v9l1 5v20l-2 12-5 2h-7l-4-1-1-12-3-9 1-9 2-9v-9l-3-7v-7l4-9z" fill="#F47170"/>
<path transform="translate(780,778)" d="m0 0 4 2 7 4 8-6 4 2 7 8 8 8 7 9v2l-7 1h-56l-7-1 2-4 10-11 7-8z" fill="#236394"/>
<path transform="translate(1132,656)" d="m0 0 9 3-1 12-9 73h-14l-1-1 1-13 7-59 1-12z" fill="#ECAC6B"/>
<path transform="translate(1017,396)" d="m0 0h31l19 1-1 4h-50l-17 1-33 4-34 7-29 8-25 9-27 12-22 12-20 12-15 10-3 1-1 5h-1l-1-11 1 2 20-13 13-8 18-10 16-8 16-7 21-8 15-5 31-8 21-4 23-3z" fill="#F8FAFC"/>
<path transform="translate(750,1214)" d="m0 0 5 1 10 7 29 17 25 13 20 9 29 11 29 9 28 7 32 6 17 2h1v7l-2-1-21-3-25-5-30-7-27-8-24-9-30-13-22-11-24-14-18-11-4-3v-3z" fill="#F8FBFD"/>
<path transform="translate(1273,377)" d="m0 0 10 4 17 10 22 15 17 13 13 11 8 7 12 11 24 24 7 8 13 15 10 13 14 19 16 25 1 7-4-2-20-30-8-11-9-12-9-11-12-14-7-7-7-8-15-15-8-7-10-9-14-11-20-15-15-10-23-14-4-5z" fill="#F8FBFD"/>
<path transform="translate(796,747)" d="m0 0 29 1-3 5-10 9-11 9-10 9-6-4-12-11-10-8-7-7v-2z" fill="#236394"/>
<path transform="translate(948,743)" d="m0 0 3 1-4 2h-4l3 6 9 12 7 8 5 3 2-4 3 8 4 4v3h2v2l5 2 21 10 12 4 1 3-2 7-21-7-21-11-8-5-3 3 1-6-12-12-10-13-9-15v-2l-4-2h16z" fill="#F7F8F7"/>
<path transform="translate(581,1019)" d="m0 0 5 1 12 22 12 21 11 17 11 16 9 12 13 16 9 11 16 17 16 16 8 7 13 11 6 5 1 6-5-2-10-9-11-9-37-37-9-11-11-13-14-19-11-16-12-20-12-21-9-16z" fill="#F8FBFD"/>
<path transform="translate(1083,1159)" d="m0 0h29l1 2 1 95-5 5-3 1-1-7v-88l-5 1h-15l-7-2 1-5z" fill="#FAC950"/>
<path transform="translate(943,657)" d="m0 0h11l1 1 1 14 2 1-1 1v9l6 48v13l-9 1-5-2-5-43v-8l2 4 2 10v7l1 5 2-1 1-13-2-6-1-7-1-3v-12l-1 1-3-1v9h-2l-2-15v-6l2 3 1 2 2-3 7-2-1-3 1-3-6 1z" fill="#ECAC6C"/>
<path transform="translate(1541,1100)" d="m0 0h7l11 4 6 5 5 11 1 7-8 17-2 2-15 5-8-2-8-5v14l-6 8-4 3h-10l-8-7-2-4 1-9 4-6 6-3h6l2 2-7 2-5 3h-2l-1 4v7l4 5 4 2h6l6-4 3-6v-8l-3-4-4-2 4-2-2-8-4-2-1-4 5-7 2-9 6-5 9-3zm0 5-8 3v2l-5 2-3 10-4 3 1 3 2 1 4 9 8 6 4 2h10l6-3 6-7 3-8-1-10-6-8-8-5z" fill="#236394"/>
<path transform="translate(669,488)" d="m0 0h22l1 1v32l-1 2-3 1h-17l-3-2v-32z" fill="#FDD84A"/>
<path transform="translate(1029,794)" d="m0 0h7l6 3 5 6 1 2v11l-4 6-5 4-3 1h-7l-7-4-6-8v-8l3-6 7-6z" fill="#3D3D3D"/>
<path transform="translate(653,943)" d="m0 0h1v8l-2 3h-2l5 13 18 37 12 20 8 12 12 17 10 13 12 14 13 14 7 7v3l-4-1-8-7-2-4h-2v-2h-2l-7-8-9-10-13-17-11-15-13-21-14-25-11-24-6-16-3-9 5 4 1 2 4-1z" fill="#F7FAFB"/>
<path transform="translate(826,754)" d="m0 0h3l1 9v32l-1 7-4-2-15-16-7-8 2-4 8-7 10-9z" fill="#236394"/>
<path transform="translate(752,753)" d="m0 0 4 2 13 12 8 7-2 5-11 11-7 8-3 3-3-1v-41z" fill="#236394"/>
<path transform="translate(1318,792)" d="m0 0v3 3l4 4 4 5h4l-2 6-12 9-9 9-8 6h-5l-4-6 2-6 5-5 9-10 7-9 3-7z" fill="#4297D2"/>
<path transform="translate(783,1124)" d="m0 0h7l4 4v2l4 2 4 4-1-4-2-3 4 1 4 4 4 10 3 6-1 5-4 4-1 10-4 2-16 2-1-3 7-2 9-1 2-1-5-3 6-12-2-5-4-8-5-3-6-3-1-2-4 1-11 7-3 5-3 4h-2v5l2 7-2 2-6-4-1-3 3-10 3-4 1-7 6-5h4l1 2 4-5z" fill="#236394"/>
<path transform="translate(847,1175)" d="m0 0 8 1 18 8 27 10 28 8 41 9 7 2-1 5-43-9-31-9-31-11-20-9-3-3z" fill="#F8FAFC"/>
<path transform="translate(841,256)" d="m0 0h3l5 6v2l4 2 2 3-10 6-15 14-7 5h-5l-3-4 1-7 7-8 10-10 7-8z" fill="#4297D2"/>
<path transform="translate(1301,751)" d="m0 0h9l5 3 6 7 2 9-2 11-2 3-14 1-9-2-4-4 3-3 9-2 3-2 1-7-4-4-2-1h-9l1-4 5-4z" fill="#4297D2"/>
<path transform="translate(1114,1289)" d="m0 0 1 4h-2l1 6v24l-2 2-22 1h-23v-3l3-6 7-1 6 1 1-2 3 1 17-17h2v20l6 1-1-27z" fill="#EDB67F"/>
<path transform="translate(1519,746)" d="m0 0 5 1 2 46v35l-2 29-4 37h-4l1-17 2-22 2-27v-36l-2-33z" fill="#F8FBFD"/>
<path transform="translate(511,1099)" d="m0 0 9 2 6 5 3 8 1 14-3 3-3 1h-13l-10-4-1-3 5-2 10-3v-9l-5-2-10-1 2-5z" fill="#4297D2"/>
<path transform="translate(510,549)" d="m0 0 5 1 5 5 10 2 3 3-1 8 6 4 1 2v6l-4 4-2 1v5l1 2-4 6-4 1-3-1-6 3h-3v2h-5l-9-7-2 3-3-1-3-5-3-9-4-6 1-4 4-4 2-10 4-3 10-4zm1 5-6 4-7 2-3 3-1 8-5 4 1 5 2 2 3 8 4 3 6 3 5 3 8-2 1-2 8-3 2-4 1-5 6-5-2-4-5-5v-7l-1-2h-5-2l-4-2-4-4z" fill="#236292"/>
<path transform="translate(1489,369)" d="m0 0 10 2 9 6 7 9 2 6v6l-4 7-3 8-2 2-9 2-6 2-2 4-3-1-5-5v-2l-11-1-3-4h2l-2-6-1-4-3-1v-6l8-15 5-4 8-4zm0 5-10 4-6 7-5 11 4 6 2 7 7 4 6 1v2l8-1 10-4 3-3 4-10v-6l-5-10-6-5-4-2z" fill="#236292"/>
<path transform="translate(524,1145)" d="m0 0 8 6v2l5 2-4 5-8 6-12 11-7 5-5-1-4-4 1-4 9-10 7-8 8-9z" fill="#4297D2"/>
<path transform="translate(827,208)" d="m0 0h8l9 8 3 6 1 5v8l-4 6h-18l-7-2v-3l12-6 3-3-1-7-4-2-10-2 1-4z" fill="#4297D2"/>
<path transform="translate(1449,389)" d="m0 0h5l3 6v2l-4-2v-2l-4 1-4 10-6 5-7 1-2 3 5 5v12l-4 2-1 6 9 2 6 4 1 1 1 11h5l2-4 4-3h6l6 5h6v-6l5-7 10-3 1-5-4-5 5 1 3 4-1 7-5 3-8 2-1 1-1 8-6 5-6-1-7-7-5 5h-2l-1 3h-6l-1-3-3-1-2-10-11-2-3-3-1-6 4-5h2v-7l-6-8 2-5 4-4h6l4-4 3-8z" fill="#245F8D"/>
<path transform="translate(1500,1120)" d="m0 0h7l5 3v3l-5-1-7-2-1 8-2 5-3 3-10 2 1 4 3 5v9l-4 7v2l12 3 3 6 2 7 8-2 2-2h7l5 3h5l6-12 10-4 1-4-1-3 4 1 2 4-4 6-4 2-7 2-2 10h-2v2l-2 1h-6l-5-4-6 1-6 3-8-1-2-6-1-5-4-2-7-2-4-4 1-5 4-7-1-6-4-5 1-6 5-3 8-2 3-11z" fill="#236293"/>
<path transform="translate(1197,432)" d="m0 0h2v2l6 1 24 12 22 13 15 10 14 10 13 10 4 4-1 3-6-2-12-10-14-10-15-10-22-13-15-8-14-7-4-3z" fill="#F8FAFC"/>
<path transform="translate(977,1159)" d="m0 0h31l3 6-2 1h-21l-7 1-1 5v7l1 2v27l-4 5h-2l-1-50z" fill="#F8C95C"/>
<path transform="translate(1033,896)" d="m0 0h7l5 2 1 2v19l-3 4-1-2-7 1-7-1-4-8v-7l4-9z" fill="#F46F6F"/>
<path transform="translate(469,572)" d="m0 0h7l4 4v2l-6-2v-2l-5 2-4 9-4 5-9 2 1 4 3 6-1 9-3 4v3l12 6 2 2 2 11 8-2 3-4h6l4 4 7 2 3-11 6-5 8-2-1-5-3-4v-2l4 2 3 4v8l-2 2-10 2-3 6-2 6-2 2h-6l-5-5-8 1-4 3h-6l-1-3h-2l-2-9-10-3-5-4 1-7 3-5v-6l-4-6v-5l6-4h5l3-5 2-4h2l2-4z" fill="#24608D"/>
<path transform="translate(1368,752)" d="m0 0 6 1 1 6-7 8-14 10-11 10-7 8-4 5h-2l-2 4h-3l-3-5 3-3h2v-2l8-7 15-15 8-10 7-8z" fill="#4297D2"/>
<path transform="translate(562,1150)" d="m0 0h7l8 3v3l-10 3-4 4v6l5 5 8 1-2 4-4 2h-9l-5-3-5-6-1-3v-10l5-6z" fill="#4297D2"/>
<path transform="translate(573,1101)" d="m0 0h5l2 2-1 6-4 5-10 7-7 6h-2l-2 4-8 8-7 8-5 3-4-4 5-6h2v-2l8-7 8-8 11-14 4-5z" fill="#4297D2"/>
<path transform="translate(1132,656)" d="m0 0 3 1v2l3 1-5 27-2 5-2 9-1 1-1 9h-2l-1 5-2-1v-14l1-8v-12l2-22z" fill="#FBCA4C"/>
<path transform="translate(1144,323)" d="m0 0h3l1 30 4 4 3 2 1 3v8l-5 5-2 1h-7l-5-4-3-5 1-6 4-5 4-2z" fill="#F9C94F"/>
<path transform="translate(892,210)" d="m0 0h5l3 2-1 6-5 5-13 10-10 9-18 18-4-1v-4l5-5 9-8 5-6 5-5 9-10 5-7z" fill="#4297D2"/>
<path transform="translate(1034,1152)" d="m0 0h21l1 3h2v12l-17 1h-9l-2-4 1-10z" fill="#F57B7C"/>
<path transform="translate(1489,383)" d="m0 0 7 1 6 6v10l-8 7h-5l-8-6-1-2v-7l5-7z" fill="#236394"/>
<path transform="translate(782,1140)" d="m0 0h9l5 3 1 4v9l-5 5-7 1-6-3-4-5 1-9z" fill="#236394"/>
<path transform="translate(509,565)" d="m0 0 8 1 6 7v7l-4 6-3 2h-7l-8-7v-8l6-7z" fill="#236394"/>
<path transform="translate(742,1144)" d="m0 0 6 1 4 3v4h-3l-2-3h-3l-3 10-5 4-10 4-3 3 6 2 2 1v9l-1 6-5 4 12 7 6 7v5l-6-1 1-5-6-5-7-2-4-7-1-4 3 1 3-6 1-6h-3l-3-6 2-7 4-3 9-1 3-12z" fill="#236395"/>
<path transform="translate(1353,800)" d="m0 0h10l8 3 5 4 2 4v3l-15 2-2 1 1 7 8 2v2l-7 1-5-5-1-6 5-6 7-1h5l-4-5-5-2h-11l-7 4-4 7 1 8 4 8 6 4 3 1h7l6-3h2l1-3h2l1-4h2l-1 5-8 7-5 2h-7l-9-6-6-7-2-6v-9l6-8h2v-2z" fill="#236293"/>
<path transform="translate(1542,1115)" d="m0 0h7l4 2 3 5-1 8-5 6-5 1-7-3-4-5v-6l3-6z" fill="#236394"/>
<path transform="translate(1445,936)" d="m0 0 3 1 4 5 2 1v5l-2 1v5l-4 2h-2l-4 2-2 3-7 3-5-1 1-8 9-11 5-5z" fill="#ECA56C"/>
<path transform="translate(951,744)" d="m0 0 6 1 2 1 6 16 3 9v5l-7-4-9-10-9-13v-3z" fill="#4195D0"/>
<path transform="translate(1437,785)" d="m0 0 5 1v19l-1 31-2 32-1 2-5 1 1-2 3-52z" fill="#F8FAFC"/>
<path transform="translate(1029,794)" d="m0 0h7l-1 2 2 1 1 7 3 4v7l-1 1-9 1-2 1-4-2-4-4 2-7 1-6-2-1 4-3z" fill="#4B5455"/>
<path transform="translate(1434,900)" d="m0 0h8l4 2 5 9 2 12-3 1h-17l-6-2 1-2 12-3v-9l-2-2-7-2 1-3z" fill="#F3796E"/>
<path transform="translate(1479,940)" d="m0 0h8l2 3v3h-6l-4 2-1 5 5-3 2 1-5 4-3-1v3l11 3v3l-3 1h-7l-6-3-4-6v-9l4-5z" fill="#F3786E"/>
<path transform="translate(697,565)" d="m0 0h9l-4 2h-2l-2 5-13 20-12 20-3 1-1-4 8-14 14-21z" fill="#F8FAFA"/>
<path transform="translate(1e3 1271)" d="m0 0h91l-3 3h-49l-39-1z" fill="#3F4040"/>
<path transform="translate(1488,428)" d="m0 0 5 1 3 4-1 7-5 3-8 2-1 1-1 8-6 5-6-1-7-7-7 6-6 1 5-5 5-4h6l6 5h6v-6l5-7 10-3 1-5z" fill="#28597E"/>
<path transform="translate(757,1163)" d="m0 0 3 1-1 2h-4v2l-7 5-3 8 3 6 4 4h8l6-5 4-9h2l-1 8-6 8-5 3h-6l-8-5-4-6v-11l6-7z" fill="#236394"/>
<path transform="translate(1e3 1250)" d="m0 0h91v3h-91z" fill="#3F4040"/>
<path transform="translate(944,675)" d="m0 0h3l2 1v14l2 7 1 4 1 3-1 14-3 1-2-7v-9l-2-7v-4h-2v-16z" fill="#FBCB4A"/>
<path transform="translate(509,608)" d="m0 0 4 2 3 4v8l-2 2-10 2-3 6-2 6-2 2h-6l-5-5-8 1-4 3h-6l-2-3 1-3 1 4 8-2 3-4h6l4 4 7 2 3-11 6-5 8-2-1-5-3-4z" fill="#265E88"/>
<path transform="translate(1077,1214)" d="m0 0h13v3l-17 1h-72l-1-3z" fill="#3C3C3C"/>
<path transform="translate(1425,641)" d="m0 0h52l-1 4h-47l-4-2z" fill="#EBA66C"/>
<path transform="translate(1488,387)" d="m0 0h6l5 5-1 7-4 4-7-1-4-4v-6z" fill="#4297D2"/>
<path transform="translate(1104,1299)" d="m0 0h2v18l-3 1-16-1 2-4 8-7z" fill="#F8F7F3"/>
<path transform="translate(1029,920)" d="m0 0 7 1 6-1 2 3 1 8-1 2h-16l-1-4 1-8z" fill="#F8F7F3"/>
<path transform="translate(1486,901)" d="m0 0 5 1 1 3-14 12h-2l-1 3-6 5-5 5-5 6-4 1 2-4 7-8 13-13 7-10z" fill="#F3786E"/>
<path transform="translate(511,568)" d="m0 0 4 1 4 3 1 7-5 5h-6l-5-5v-5z" fill="#4297D2"/>
<path transform="translate(479,591)" d="m0 0h5v2l-10 5-3 6 1 7 6 5 4 1 7-2 4-5 3-8h1v7l-4 7-5 4h-11l-8-7-2-5 1-7 4-6 4-3z" fill="#236292"/>
<path transform="translate(1458,409)" d="m0 0h9l1 2-10 2-5 3-3 9 3 6 5 4 4 1 6-3 4-5 2-5h2v6l-7 8-3 2h-9l-8-7-2-4v-7l4-8 3-2h4z" fill="#236191"/>
<path transform="translate(1330,809)" d="m0 0 3 3-1 4-5 1-9 7-7 7-11 9h-6l-5-5-1-2v-6l2-3 3 1-2 6 3 5 7-1 15-14 12-9z" fill="#236293"/>
<path transform="translate(784,1183)" d="m0 0 6 1 4 3-1 5-4 6-12 3-1 10-5 3-5 1v-3l5-3 2-9 6-5h7l3-1-2-5-3-3z" fill="#236495"/>
<path transform="translate(1029,956)" d="m0 0 10 1 5 1v9l-5 2h-7l-4-1-1-10z" fill="#F8F8F7"/>
<path transform="translate(1542,1119)" d="m0 0h7l3 2v8l-5 4-7-1-3-3-1-6h2l1-3z" fill="#4297D2"/>
<path transform="translate(784,1143)" d="m0 0 7 1 2 3v8l-4 3h-7l-4-4 1-5z" fill="#4297D2"/>
<path transform="translate(1477,377)" d="m0 0h2l-2 4-6 10-2 5 4 6 1 7 4 2 6 2v2l2 1-14-2-3-4h2l-2-6-1-4-3-1v-6l7-13z" fill="#255F8B"/>
<path transform="translate(742,1144)" d="m0 0 6 1 4 3v4h-3l-2-3h-3l-3 10-5 4-10 4-4 3v-6l5-4 9-1 3-12z" fill="#236394"/>
<path transform="translate(1450,599)" d="m0 0 5 1 9 6v3h-26v-3z" fill="#F8CB64"/>
<path transform="translate(717,445)" d="m0 0 6 1 1 2h-5l3 3-1 2-4-3-2 13-3 7-5 9-2-2-3 2 2-5 6-13 2-13z" fill="#FBEDD5"/>
<path transform="translate(1144,357)" d="m0 0 5 1 3 3 1 8-4 3h-7l-4-5 1-6z" fill="#F8F6F0"/>
<path transform="translate(610,899)" d="m0 0h9l1 1v12l-10 1-2-1-1-9z" fill="#ECAC6C"/>
<path transform="translate(1170,673)" d="m0 0 2 1 2 8v10l-3 26-3 12-5 8-6 5-6 3h-17l-7-1v-1h22l11-6 1-2h2l4-12 3-17 1-10v-19z" fill="#FBE9CB"/>
<path transform="translate(637,899)" d="m0 0h8l2 2v10l-4 2-7-1-2-4 1-7z" fill="#F4746E"/>
<path transform="translate(1425,620)" d="m0 0h52l-1 4-50-1z" fill="#ECAA6C"/>
<path transform="translate(1433,629)" d="m0 0h35l1 5-36-1z" fill="#ECAD6A"/>
<path transform="translate(583,899)" d="m0 0h7l3 3v9l-1 1h-10l-2-3v-6z" fill="#EDAF74"/>
<path transform="translate(1437,944)" d="m0 0v3l-7 8-1 8 7-1 4-2 4-4 4-2-2 4-8 8-5 2-6-1v-2h-2l-1-2v-6z" fill="#FDE4BC"/>
<path transform="translate(469,572)" d="m0 0h7l4 4v2l-6-2v-2l-5 2-4 9-4 5-9 2 1 6h-4l-1-7 6-4h5l3-5 2-4h2l2-4z" fill="#236191"/>
<path transform="translate(1429,431)" d="m0 0 2 1-1 6 9 2 6 4 1 1 1 11 7 1-1 2h-6l-1-3-3-1-2-10-11-2-3-3-1-6z" fill="#236394"/>
<path transform="translate(1492,627)" d="m0 0 2 2v16l3-3 4-2 3 3h3l-2 4-12 6h-1z" fill="#ECAA6C"/>
<path transform="translate(1434,949)" d="m0 0h4v3l-4 3h-2v4l6-2 1-3 5-1-2 5-2 3-7 3-5-1 1-8z" fill="#F27C6E"/>
<path transform="translate(1e3 1289)" d="m0 0h42v3h-43z" fill="#495152"/>
<path transform="translate(1466,652)" d="m0 0h4v3l-7 1h-29l-1-3z" fill="#BD7766"/>
<path transform="translate(1478,447)" d="m0 0h1v6l-5 6-6-1-7-7-7 6-6 1 5-5 5-4h6l6 5h6z" fill="#2A5677"/>
<path transform="translate(936,657)" d="m0 0h7l9 1 1 3-1 3-4 2h-3l-2 4-2-3-1-9z" fill="#FBCA4D"/>
<path transform="translate(1464,800)" d="m0 0h5v17l-3 3-3-2z" fill="#F8F8F5"/>
<path transform="translate(1377,591)" d="m0 0 4 1 10 16v4l-4-1-10-16z" fill="#F8FBFD"/>
<path transform="translate(509,1096)" d="m0 0 9 1 5 3v2l-12-2-9 4-1 6-5-1 2-5 7-6z" fill="#236191"/>
<path transform="translate(1463,761)" d="m0 0h4l1 2v16l-3 1-2-1-1-17z" fill="#F8F8F5"/>
<path transform="translate(1457,723)" d="m0 0 5 2 2 16-5 1-1-2-1-11-1-5z" fill="#F8F9F8"/>
<path transform="translate(1077,1214)" d="m0 0h13v3l-17 1-19-1-2-2z" fill="#4A5354"/>
<path transform="translate(1033,940)" d="m0 0h7l1 1-1 8-1 1h-7l-1-2v-7z" fill="#40525C"/>
<path transform="translate(841,266)" d="m0 0 1 3-16 16-4 2 1-4 7-8 7-7z" fill="#236394"/>
<path transform="translate(723,1192)" d="m0 0 5 2 9 5 6 7v5l-6-1 1-5-6-5-7-2z" fill="#256799"/>
<path transform="translate(1033,904)" d="m0 0h6l1 1v8l-2 2-6-1-1-1v-7z" fill="#42545E"/>
<path transform="translate(818,1197)" d="m0 0 6 1 10 5 3 3v2h-6l-11-6z" fill="#F8FBFD"/>
<path transform="translate(670,1072)" d="m0 0h5l10 12-1 4-4-1-6-8-4-5z" fill="#F8FBFD"/>
<path transform="translate(597,701)" d="m0 0h2l-1 9-3 11-4-1 1-8 3-9z" fill="#F8FBFD"/>
<path transform="translate(696,1102)" d="m0 0 5 1 9 9 1 3-4 1-8-7-3-3z" fill="#F8FBFD"/>
<path transform="translate(723,1130)" d="m0 0 6 1 10 9 1 4-5-1-11-9z" fill="#F8FBFD"/>
<path transform="translate(649,1040)" d="m0 0 5 1 8 13-1 2-5-2-7-10-1-3z" fill="#F8FBFD"/>
<path transform="translate(615,970)" d="m0 0 4 2 5 12v4l-4-1-6-12z" fill="#F8FAFC"/>
<path transform="translate(1316,808)" d="m0 0 1 3-8 10-11 10-1-2 7-9z" fill="#236394"/>
<path transform="translate(1120,732)" d="m0 0 4 2v3h2l1 5-10 2-1-1v-5l2-5z" fill="#FAC94C"/>
<path transform="translate(1408,1024)" d="m0 0h4l-1 5-5 7-3 6-4-1 3-7z" fill="#F8FBFD"/>
<path transform="translate(607,664)" d="m0 0h3l-1 7-4 12h-4l1-7 4-11z" fill="#F8FBFD"/>
<path transform="translate(981,367)" d="m0 0h6l1 4-18 2-2-1 1-4z" fill="#F8FBFD"/>
<path transform="translate(1400,577)" d="m0 0 4 1 7 10 1 7-4-2-7-11z" fill="#F8FAFC"/>
<path transform="translate(1356,515)" d="m0 0 5 3 7 8 1 4-2 1-8-7-4-5z" fill="#F8FBFD"/>
<path transform="translate(1138,1232)" d="m0 0 3 1-2 4-11 3h-7l1-4z" fill="#F8FBFD"/>
<path transform="translate(1379,545)" d="m0 0 5 2 8 10v5l-4-2-8-10z" fill="#F8FBFD"/>
<path transform="translate(1111,1238)" d="m0 0 2 4 1 14-5 5-3 1-1-7 2-4 1 5 2-1 1-7-1-2v-6z" fill="#EDB57C"/>
<path transform="translate(1247,1188)" d="m0 0h2l-1 4-10 6-6 2-2-2 5-4z" fill="#F8FAFC"/>
<path transform="translate(711,924)" d="m0 0 6 1 3 5v7l-4 4-5 1-5-2 1-3 5 2 3-1 2-4-1-4-1-2-6-1v-2z" fill="#F8FBFD"/>
<path transform="translate(638,593)" d="m0 0h4l-1 5-6 11-3 2-1-5z" fill="#F8FBFD"/>
<path transform="translate(942,372)" d="m0 0h6v4l-1 1-8 1-2 2h-5v-4z" fill="#F8FAFC"/>
<path transform="translate(1144,323)" d="m0 0h3v25l-3 1z" fill="#FBCC4B"/>
<path transform="translate(1388,1057)" d="m0 0h3l-2 6-8 10-3 1 1-5 7-10z" fill="#F8FBFD"/>
<path transform="translate(630,1006)" d="m0 0 4 1 5 8 2 4v4l-4-2-7-11z" fill="#F8FBFD"/>
<path transform="translate(1464,839)" d="m0 0h4l-1 18-4 1v-14z" fill="#F8FBFD"/>
<path transform="translate(621,628)" d="m0 0 4 1-5 13-2 3h-3l1-7z" fill="#F8FBFD"/>
<path transform="translate(786,1179)" d="m0 0 6 1 9 5v3l-5 1-10-7z" fill="#F8FBFD"/>
<path transform="translate(767,1167)" d="m0 0 15 2 3 5 3 2 3 3-7-1-5-5-12-3z" fill="#236394"/>
<path transform="translate(659,560)" d="m0 0h3l-1 5-8 12-3-1 1-5z" fill="#F8FBFD"/>
<path transform="translate(1070,1310)" d="m0 0h8l5 5v2h-13l-1-3z" fill="#FDE0B3"/>
<path transform="translate(1207,1208)" d="m0 0h7l-2 4-8 3-2 1h-6l1-4z" fill="#F8FBFD"/>
<path transform="translate(1426,990)" d="m0 0 4 2-2 1-1 5-4 8-4 2 1-7z" fill="#F8FAFB"/>
<path transform="translate(1173,1222)" d="m0 0h4v3l-13 5-4-1 1-4z" fill="#F8FAFB"/>
<path transform="translate(592,939)" d="m0 0h18l-2 1 1 5v7h-3l-2-3-1-8-11-1z" fill="#F8FAFA"/>
<path transform="translate(479,631)" d="m0 0h6l5 5 6 2v1h-7l-3-4-8 1-4 3h-6l-2-3 1-3 1 4 8-2z" fill="#32495B"/>
<path transform="translate(1114,363)" d="m0 0h14l3 1-1 3h-17v-3z" fill="#EDAC69"/>
<path transform="translate(1445,936)" d="m0 0 3 1 4 5 2 1v5h-5v-3h-2v-2l-4-1 1-5z" fill="#F3766E"/>
<path transform="translate(1067,1316)" d="m0 0h3l-1 6-5 5h-5l1-4 5-5z" fill="#3D3D3D"/>
<path transform="translate(754,1155)" d="m0 0 5 1 5 4 1 4-3 1-5-3-4-3z" fill="#F8FBFD"/>
<path transform="translate(1446,944)" d="m0 0 3 1v3l3 1v5l-4 2h-2l-4 1 4-6h2v-2l-5 1 1-4z" fill="#F1BC81"/>
<path transform="translate(1376,826)" d="m0 0h2l-1 5-8 7-5 2h-5l1-3 12-4 1-3h2z" fill="#255F8C"/>
<path transform="translate(1009,365)" d="m0 0h18l-1 3-17 1z" fill="#F8FBFD"/>
<path transform="translate(729,1199)" d="m0 0 5 1 5 5v3l-6-1-6-5v-2z" fill="#F8FBFD"/>
<path transform="translate(523,1156)" d="m0 0 2 1-16 16-5 3 2-4 15-15z" fill="#236394"/>
<path transform="translate(464,757)" d="m0 0h5l2 3-2 5-5-1-3-2 1-4z" fill="#F8FBFD"/>
<path transform="translate(1461,620)" d="m0 0h16l-1 4-9-2h-27v-1z" fill="#F56E6F"/>
<path transform="translate(1447,954)" d="m0 0v3l-9 9-5 2-4-1 5-1-1-3 7-3 4-4z" fill="#FEE1B2"/>
<path transform="translate(609,900)" d="m0 0h2v6l3-1-1 6-5 1-1-9z" fill="#F2816E"/>
<path transform="translate(1e3 1289)" d="m0 0h16l13 1v1l-18 1h-12z" fill="#434848"/>
<path transform="translate(854,1215)" d="m0 0h8l4 2 1 3-1 1-8-1-4-3z" fill="#F8FBFD"/>
<path transform="translate(1513,693)" d="m0 0h1v19l-1 1h-12l2-2h7l2-6z" fill="#FED94A"/>
<path transform="translate(479,591)" d="m0 0h5v2l-10 5-2 3h-2l1-5 5-4z" fill="#275B83"/>
<path transform="translate(458,622)" d="m0 0 5 1 3 3 1 7-2 3-2-9-5-2-2-2z" fill="#246190"/>
<path transform="translate(1458,409)" d="m0 0h9l1 2-10 2-5 3-1 2h-2l1-5 3-2h4z" fill="#285A81"/>
<path transform="translate(1e3 1215)" d="m0 0h21v2l-20 1z" fill="#434647"/>
<path transform="translate(1439,950)" d="m0 0h3l-1 4h-2l-1 4-6 1v-4z" fill="#FEE1B2"/>
<path transform="translate(1619,625)" d="m0 0h7l1 4-5 2-5-3v-2z" fill="#F8FBFD"/>
<path transform="translate(1183,1116)" d="m0 0h9l3 3-1 4-2-3-11-1z" fill="#F8FBFD"/>
<path transform="translate(1138,369)" d="m0 0 4 2 7 1-2 1v3l-7-1-3-3z" fill="#F5BF57"/>
<path transform="translate(589,901)" d="m0 0 4 1v9h-6v-2h2z" fill="#E2796B"/>
<path transform="translate(956,736)" d="m0 0h2l2 7-3 1-5-1 2-6z" fill="#FCCC4A"/>
<path transform="translate(1390,699)" d="m0 0h1l1 6h9l-4 3-5 4h-2z" fill="#FCCC4A"/>
<path transform="translate(469,572)" d="m0 0h7l4 4v2l-6-2v-2l-5 2-4 5 1-5z" fill="#2F4F68"/>
<path transform="translate(582,901)" d="m0 0h4l-1 9-2 1-1-1-2-1v-6z" fill="#AA796A"/>
<path transform="translate(1049,367)" d="m0 0 11 1 1 1v5l-1-3h-9l-3-3z" fill="#F8FBFD"/>
<path transform="translate(1136,642)" d="m0 0 2 3 3 11-4 1-1-6z" fill="#3481B7"/>
<path transform="translate(509,608)" d="m0 0 4 2 3 4v8l-4-2 1-4-4-6z" fill="#236394"/>
<path transform="translate(1458,449)" d="m0 0 3 1-5 6-4 2-4-1 3-1 4-5z" fill="#2C5372"/>
<path transform="translate(1268,183)" d="m0 0 6 1-1 4-5 1-2-4z" fill="#F8FBFD"/>
<path transform="translate(1462,927)" d="m0 0 4 2-5 5-4 3h-2l2-4z" fill="#ECAC6C"/>
<path transform="translate(634,903)" d="m0 0 2 3v2h5l-2 2 7 1-3 2-7-1-2-4z" fill="#ECAC6C"/>
<path transform="translate(1531,641)" d="m0 0h5l2 3-2 2h-6v-4z" fill="#F8FBFD"/>
<path transform="translate(498,631)" d="m0 0 2 1v5l-3 3h-6l-1-4 6 1z" fill="#24608E"/>
<path transform="translate(1443,694)" d="m0 0 4 1-1 3-9 2 1-4z" fill="#FCCC4A"/>
<path transform="translate(912,1134)" d="m0 0h2v3h5v2l-3 1h-9l-1-3h6z" fill="#F8FBFD"/>
<path transform="translate(616,900)" d="m0 0h4v12h-5l2-2v-7z" fill="#F3756E"/>
<path transform="translate(748,1210)" d="m0 0 4 2-2 3-5 1-3-3z" fill="#236495"/>
<path transform="translate(1290,824)" d="m0 0 3 1-2 6 1 4h-3l-1-2v-6z" fill="#24608E"/>
<path transform="translate(1015,1232)" d="m0 0h15l-3 1v2l-5-1-5 1h-2z" fill="#4B5455"/>
<path transform="translate(637,899)" d="m0 0h8l-2 2-1 4h-2v-3l-5 1z" fill="#ECAC6C"/>
<path transform="translate(811,504)" d="m0 0h4l1 5-4 1-2-1z" fill="#F8FBFD"/>
<path transform="translate(1462,606)" d="m0 0h2v3h-21v-1l10-1h8z" fill="#F09272"/>
<path transform="translate(1170,707)" d="m0 0h1v11l-2 5h-1l1-12z" fill="#FDE3BA"/>
<path transform="translate(1503,645)" d="m0 0h2v2l-5 3-7-1v-2z" fill="#F4746E"/>
<path transform="translate(1467,620)" d="m0 0h10l-1 4-9-2z" fill="#DB736A"/>
<path transform="translate(1488,428)" d="m0 0 5 1 3 4v5l-3-2-3-5z" fill="#236394"/>
<path transform="translate(801,1331)" d="m0 0 4 2-1 4-5-1 1-4z" fill="#F8FBFD"/>
<path transform="translate(1111,1238)" d="m0 0 2 4v10l-3-6v-6z" fill="#ECAC6C"/>
<path transform="translate(1114,363)" d="m0 0h8l-3 2 1 2h-7v-3z" fill="#F2BB5E"/>
<path transform="translate(1080,363)" d="m0 0 7 1-1 3h-6z" fill="#3177AA"/>
<path transform="translate(1192,317)" d="m0 0h3v3h-2v2l-5 1 1-4z" fill="#3C576A"/>
</svg>
